<?xml version="1.0" encoding="UTF-8" standalone="no"?>
<!DOCTYPE svg PUBLIC "-//W3C//DTD SVG 1.1//EN" "http://www.w3.org/Graphics/SVG/1.1/DTD/svg11.dtd">
<!-- Created with Vectornator (http://vectornator.io/) -->
<svg height="100%" stroke-miterlimit="10" style="fill-rule:nonzero;clip-rule:evenodd;stroke-linecap:round;stroke-linejoin:round;" version="1.1" viewBox="0 0 1024 1024" width="100%" xml:space="preserve" xmlns="http://www.w3.org/2000/svg" xmlns:vectornator="http://vectornator.io" xmlns:xlink="http://www.w3.org/1999/xlink">
<defs/>
<g id="Layer-1" vectornator:layerName="Layer 1">
<path d="M608.993 126.821L393.965 535.809L393.965 145.601L245.277 158.602L245.277 912L393.965 898.998L393.965 843.835L486.273 668.233L608.993 880.218L778.723 865.344L571.138 506.81L778.723 112L608.993 126.821ZM293.366 851.684C293.366 851.458 293.366 851.061 293.366 851.061L293.366 210.895C293.496 202.775 299.681 196.034 307.766 195.203C311.482 194.796 315.194 196.003 317.96 198.517C320.725 201.031 322.277 204.61 322.223 208.346L322.223 792.71L471.607 508.601L648.034 172.939C651.643 165.74 660.189 162.531 667.649 165.574C671.036 167.253 673.57 170.264 674.646 173.886C675.721 177.507 675.24 181.413 673.319 184.666L500.69 513.246L673.319 811.405C677.019 818.555 674.54 827.348 667.649 831.517C665.538 832.832 663.152 833.646 660.676 833.896C655.583 834.433 650.644 831.954 648.034 827.551L484.249 544.292L320.408 855.877C320.279 856.153 320.127 856.418 319.955 856.67L319.558 857.293C319.112 858.019 318.6 858.702 318.027 859.333L318.027 859.333L316.156 861.032L315.646 861.429C315.023 861.882 314.342 862.279 313.662 862.675L313.662 862.675C312.889 863.045 312.094 863.366 311.281 863.638L310.657 863.638C309.801 863.868 308.929 864.038 308.049 864.148C307.181 864.204 306.31 864.204 305.442 864.148L304.988 864.148L302.607 863.638L302.153 863.638L301.133 863.242L300.623 862.902L299.376 862.165C298.994 861.933 298.633 861.668 298.298 861.372L297.335 860.466C297.051 860.126 296.654 859.786 296.428 859.446C296.201 859.106 295.691 858.766 295.691 858.37C295.461 858.004 295.253 857.626 295.067 857.237C294.844 856.818 294.655 856.382 294.5 855.934C294.103 855.537 294.103 855.14 294.103 854.687C294.076 854.253 294.076 853.818 294.103 853.384C293.783 852.853 293.536 852.281 293.366 851.684Z" fill="#000000" fill-rule="evenodd" opacity="1" stroke="none"/>
</g>
</svg>
